<?xml version="1.0" standalone="no"?>
<!DOCTYPE svg PUBLIC "-//W3C//DTD SVG 20010904//EN"
 "http://www.w3.org/TR/2001/REC-SVG-20010904/DTD/svg10.dtd">
<svg version="1.0" xmlns="http://www.w3.org/2000/svg"
 width="100.000000pt" height="100.000000pt" viewBox="0 0 100.000000 100.000000"
 preserveAspectRatio="xMidYMid meet">

<g transform="translate(0.000000,100.000000) scale(0.100000,-0.100000)"
fill="#000000" stroke="none">
<path d="M310 876 c-9 -12 -7 -30 9 -86 20 -70 20 -71 0 -91 -23 -23 -24 -47
-3 -71 16 -17 14 -23 -36 -100 -106 -164 -115 -186 -115 -263 1 -103 50 -181
145 -231 44 -23 248 -32 326 -15 132 30 222 169 193 299 -6 29 -40 93 -86 166
-65 101 -75 121 -65 137 17 26 15 59 -5 81 -15 17 -15 23 5 90 15 52 18 76 10
85 -15 18 -64 16 -93 -3 -23 -15 -27 -15 -50 0 -31 20 -64 20 -94 0 -22 -16
-25 -16 -51 0 -35 20 -74 21 -90 2z m74 -31 c26 -19 51 -19 86 2 27 15 30 15
54 0 32 -22 60 -21 97 0 15 9 31 15 33 12 3 -3 -3 -34 -13 -70 l-18 -64 -124
-3 -124 -2 -17 59 c-10 33 -18 65 -18 71 0 14 22 12 44 -5z m266 -170 c18 -21
3 -33 -45 -37 -50 -4 -56 -31 -8 -36 28 -3 39 -15 108 -122 79 -124 95 -160
95 -221 0 -54 -48 -139 -98 -174 -43 -29 -47 -30 -180 -33 -155 -4 -196 4
-248 50 -56 50 -77 100 -72 178 3 63 7 71 84 191 73 113 83 124 115 129 50 7
46 34 -6 38 -46 4 -60 14 -52 36 9 23 288 24 307 1z"/>
<path d="M485 630 c-8 -13 4 -32 16 -25 12 8 12 35 0 35 -6 0 -13 -4 -16 -10z"/>
<path d="M480 469 c0 -6 -13 -24 -30 -39 -16 -15 -30 -38 -30 -50 0 -12 14
-35 30 -50 25 -23 30 -36 30 -75 0 -38 -3 -46 -15 -41 -8 3 -22 9 -30 12 -10
4 -15 0 -15 -11 0 -9 13 -22 29 -28 16 -6 32 -19 34 -29 5 -19 27 -25 27 -8 0
5 16 25 35 44 25 25 35 44 35 66 0 29 -29 70 -50 70 -5 0 -10 18 -10 39 0 34
3 38 20 34 29 -8 25 14 -9 48 -30 30 -51 37 -51 18z m-3 -106 c-4 -17 -4 -17
-12 0 -4 9 -4 25 0 35 8 16 8 16 12 0 3 -10 3 -26 0 -35z m63 -102 c0 -17 -4
-33 -10 -36 -6 -4 -10 8 -10 29 0 20 5 36 10 36 6 0 10 -13 10 -29z"/>
</g>
</svg>
