<?xml version="1.0" standalone="no"?>
<!DOCTYPE svg PUBLIC "-//W3C//DTD SVG 20010904//EN"
 "http://www.w3.org/TR/2001/REC-SVG-20010904/DTD/svg10.dtd">
<svg version="1.0" xmlns="http://www.w3.org/2000/svg"
 width="100.000000pt" height="100.000000pt" viewBox="0 0 100.000000 100.000000"
 preserveAspectRatio="xMidYMid meet">

<g transform="translate(0.000000,100.000000) scale(0.100000,-0.100000)"
fill="#000000" stroke="none">
<path d="M288 664 c-28 -8 -57 -27 -73 -46 -23 -28 -26 -37 -21 -80 3 -26 9
-71 12 -98 4 -37 2 -57 -10 -75 -18 -27 -21 -106 -6 -136 21 -39 88 -63 190
-67 94 -4 95 -5 115 -36 31 -47 134 -95 221 -103 124 -10 172 19 181 109 5 53
4 56 -32 91 -44 43 -123 75 -206 84 -32 3 -59 10 -59 15 0 5 10 22 21 37 17
23 20 37 15 73 -3 23 -9 71 -12 105 -5 49 -12 68 -32 88 -51 51 -202 71 -304
39z m252 -37 c38 -19 45 -26 45 -52 0 -26 -7 -33 -48 -54 -40 -20 -64 -24
-132 -24 -68 0 -92 4 -132 24 -41 21 -48 28 -48 53 0 23 7 34 32 48 71 42 202
44 283 5z m-135 -152 c82 0 108 4 143 22 37 18 43 19 40 5 -2 -10 -25 -28 -51
-41 -70 -34 -194 -34 -264 0 -26 13 -49 31 -51 41 -3 14 3 13 40 -5 35 -18 61
-22 143 -22z m205 -23 c0 -64 -166 -103 -287 -67 -27 8 -58 24 -68 35 -22 24
-23 24 39 5 91 -28 252 -11 286 30 17 20 30 19 30 -3z m-23 -98 c-29 -24 -104
-44 -171 -44 -57 0 -139 25 -161 50 -25 27 -15 33 23 14 75 -37 229 -35 295 3
40 24 50 8 14 -23z m-339 -23 c15 -10 44 -24 66 -31 42 -14 170 -17 207 -5 21
7 21 5 -7 -18 -62 -52 -228 -44 -286 13 -17 18 -26 34 -22 44 8 20 10 20 42
-3z m327 -21 c-3 -5 -12 -10 -18 -10 -7 0 -6 4 3 10 19 12 23 12 15 0z m210
-65 c69 -35 105 -77 89 -103 -6 -9 -29 -23 -51 -31 -104 -37 -334 63 -307 133
11 28 42 36 129 33 66 -2 90 -7 140 -32z m-402 -23 c72 -3 97 -8 97 -18 0 -19
-85 -29 -153 -16 -65 12 -100 31 -117 63 -11 20 -10 20 32 -2 33 -18 65 -24
141 -27z m225 -110 c50 -24 70 -27 155 -27 53 0 97 -3 97 -6 0 -15 -69 -34
-117 -33 -105 3 -243 73 -243 124 0 17 3 16 25 -6 14 -14 51 -37 83 -52z"/>
</g>
</svg>
