<?xml version="1.0" standalone="no"?>
<!DOCTYPE svg PUBLIC "-//W3C//DTD SVG 20010904//EN"
 "http://www.w3.org/TR/2001/REC-SVG-20010904/DTD/svg10.dtd">
<svg version="1.0" xmlns="http://www.w3.org/2000/svg"
 width="100.000000pt" height="100.000000pt" viewBox="0 0 100.000000 100.000000"
 preserveAspectRatio="xMidYMid meet">

<g transform="translate(0.000000,100.000000) scale(0.100000,-0.100000)"
fill="#000000" stroke="none">
<path d="M464 925 c-10 -8 -38 -15 -62 -15 -30 0 -47 -6 -60 -21 -9 -12 -36
-29 -58 -39 -30 -13 -43 -26 -48 -47 -4 -15 -21 -41 -38 -56 -26 -24 -29 -33
-24 -60 4 -22 1 -42 -11 -64 -16 -31 -16 -34 0 -69 12 -23 16 -47 12 -65 -5
-23 -1 -34 22 -55 15 -14 33 -40 39 -57 6 -18 20 -36 31 -41 20 -9 19 -13 -28
-115 -27 -58 -49 -112 -49 -118 0 -9 16 -13 49 -13 44 0 51 -3 76 -36 20 -26
30 -33 39 -24 6 6 31 57 57 112 l45 102 41 2 41 2 49 -111 c28 -61 55 -113 61
-115 6 -2 21 13 34 32 21 33 27 36 70 36 26 0 49 3 51 8 3 4 -17 56 -44 116
l-48 109 24 19 c14 11 25 28 25 39 0 10 13 31 29 45 30 26 42 74 42 164 0 90
-12 138 -42 164 -16 14 -29 34 -29 45 0 22 -30 51 -53 51 -9 0 -29 14 -44 30
-21 24 -35 30 -67 30 -23 1 -52 7 -66 15 -32 18 -42 18 -66 0z m64 -41 c16
-11 34 -14 56 -10 28 5 36 2 49 -18 9 -13 32 -30 52 -36 28 -9 37 -19 42 -41
3 -16 18 -38 32 -49 23 -15 26 -24 23 -54 -3 -23 2 -45 13 -62 15 -24 15 -27
0 -50 -10 -15 -15 -40 -13 -60 2 -28 -3 -39 -21 -53 -13 -10 -29 -33 -35 -52
-8 -25 -19 -35 -42 -41 -18 -4 -39 -20 -49 -34 -14 -22 -22 -25 -47 -20 -18 4
-41 0 -60 -10 -29 -15 -34 -15 -60 1 -19 11 -38 14 -58 10 -25 -6 -34 -2 -55
23 -13 16 -38 32 -55 35 -22 5 -30 12 -30 28 0 11 -14 34 -31 51 -21 22 -29
39 -27 57 1 15 -4 41 -11 59 -12 28 -12 37 0 58 7 14 12 39 11 56 -2 21 5 40
21 57 14 14 31 40 38 56 8 17 23 31 35 33 12 2 34 16 49 32 22 23 33 27 59 23
19 -3 39 1 51 11 26 20 35 20 63 0z m-188 -605 c0 -11 -9 -38 -21 -60 -20 -39
-19 -74 1 -67 5 2 22 28 37 58 20 38 35 56 50 58 21 3 20 -1 -18 -85 -23 -48
-43 -90 -46 -93 -3 -3 -12 5 -20 17 -11 16 -25 23 -49 23 -19 0 -34 2 -34 4 0
2 18 42 40 90 38 81 60 102 60 55z m410 -140 c0 -5 -13 -9 -29 -9 -20 0 -35
-8 -48 -26 l-19 -26 -42 93 c-23 50 -40 94 -38 96 14 14 45 -14 69 -62 25 -52
40 -65 51 -47 2 4 -7 34 -21 65 -22 49 -24 59 -12 73 12 15 18 7 51 -66 21
-45 38 -86 38 -91z"/>
<path d="M405 834 c-141 -50 -208 -222 -140 -360 15 -30 31 -54 36 -54 20 0
19 29 -3 66 -18 30 -23 54 -23 104 0 80 32 141 96 186 38 26 50 29 118 29 42
0 88 -4 104 -9 22 -7 27 -5 27 8 0 41 -133 59 -215 30z"/>
<path d="M640 777 c0 -8 9 -22 20 -32 16 -14 23 -16 32 -7 9 9 7 16 -7 32 -21
23 -45 26 -45 7z"/>
<path d="M455 711 c-23 -46 -29 -51 -59 -51 -19 0 -41 -3 -50 -6 -27 -10 -18
-47 18 -76 33 -26 34 -28 24 -73 -17 -78 4 -94 69 -54 l35 22 48 -23 c65 -31
82 -19 68 46 -10 45 -9 47 26 83 20 20 36 42 36 49 0 17 -34 32 -73 32 -32 0
-37 5 -58 48 -33 65 -52 65 -84 3z m62 -38 c15 -32 24 -39 63 -46 l45 -9 -33
-30 c-32 -28 -33 -31 -24 -73 l10 -45 -40 22 -40 23 -38 -22 -39 -21 6 44 c5
40 3 48 -22 74 l-28 29 43 7 c38 6 44 11 58 46 8 21 17 38 18 38 2 0 12 -17
21 -37z"/>
<path d="M705 708 c-3 -8 -1 -27 5 -42 14 -38 13 -121 -3 -159 -51 -121 -192
-176 -308 -119 -52 25 -69 27 -69 9 0 -25 80 -60 149 -65 85 -6 153 21 210 83
39 42 71 120 71 172 0 68 -41 157 -55 121z"/>
</g>
</svg>
