<?xml version="1.0" standalone="no"?>
<!DOCTYPE svg PUBLIC "-//W3C//DTD SVG 20010904//EN"
 "http://www.w3.org/TR/2001/REC-SVG-20010904/DTD/svg10.dtd">
<svg version="1.0" xmlns="http://www.w3.org/2000/svg"
 width="100.000000pt" height="100.000000pt" viewBox="0 0 100.000000 100.000000"
 preserveAspectRatio="xMidYMid meet">

<g transform="translate(0.000000,100.000000) scale(0.100000,-0.100000)"
fill="#000000" stroke="none">
<path d="M347 823 c-4 -3 -7 -33 -7 -65 l0 -58 -70 0 -70 0 2 -337 3 -338 225
-3 c124 -1 235 0 248 3 39 9 62 41 62 85 l0 40 44 0 c29 0 52 7 70 21 l26 20
0 223 0 222 -99 97 -98 97 -165 0 c-91 0 -168 -3 -171 -7z m303 -99 c0 -59 3
-68 29 -95 27 -27 35 -29 100 -29 l71 0 0 -186 c0 -109 -4 -193 -10 -205 -10
-18 -23 -19 -230 -19 -207 0 -220 1 -230 19 -15 29 -14 553 2 569 8 8 54 12
140 12 l128 0 0 -66z m113 -72 c-53 -5 -63 2 -63 49 l0 41 49 -44 48 -43 -34
-3z m-423 -247 l0 -255 185 0 185 0 0 -27 c0 -14 -7 -35 -17 -45 -15 -16 -35
-18 -221 -18 -177 0 -208 2 -224 17 -17 15 -18 37 -18 288 0 197 3 274 12 283
7 7 31 12 55 12 l43 0 0 -255z"/>
<path d="M465 490 c-4 -6 -1 -18 6 -26 10 -12 37 -14 148 -12 128 3 136 4 136
23 0 19 -8 20 -142 23 -93 2 -144 -1 -148 -8z"/>
<path d="M464 385 c-10 -26 10 -36 62 -33 41 3 49 6 49 23 0 17 -8 20 -53 23
-41 2 -54 0 -58 -13z"/>
<path d="M634 385 c-9 -22 9 -37 37 -33 16 2 24 10 24 23 0 26 -52 35 -61 10z"/>
</g>
</svg>
