<?xml version="1.0" standalone="no"?>
<!DOCTYPE svg PUBLIC "-//W3C//DTD SVG 20010904//EN"
 "http://www.w3.org/TR/2001/REC-SVG-20010904/DTD/svg10.dtd">
<svg version="1.0" xmlns="http://www.w3.org/2000/svg"
 width="100.000000pt" height="100.000000pt" viewBox="0 0 100.000000 100.000000"
 preserveAspectRatio="xMidYMid meet">

<g transform="translate(0.000000,100.000000) scale(0.100000,-0.100000)"
fill="#000000" stroke="none">
<path d="M314 830 c-54 -17 -128 -73 -161 -123 -43 -64 -56 -117 -51 -202 8
-116 65 -202 170 -255 52 -26 72 -30 138 -30 66 0 86 4 138 30 71 36 115 83
150 158 21 47 24 64 20 136 -7 123 -57 205 -160 261 -44 24 -67 29 -133 32
-44 1 -94 -2 -111 -7z m202 -59 c86 -39 145 -124 152 -221 5 -72 -11 -129 -51
-182 -73 -95 -215 -127 -325 -72 -93 46 -142 127 -142 234 0 107 49 188 142
234 65 33 161 35 224 7z"/>
<path d="M363 741 c-83 -21 -151 -94 -160 -174 -9 -76 39 -74 51 3 8 49 61
105 108 115 64 13 69 16 66 38 -3 25 -19 29 -65 18z"/>
<path d="M244 419 c-8 -14 21 -43 35 -35 6 4 11 16 11 27 0 21 -34 27 -46 8z"/>
<path d="M644 285 c-4 -8 0 -23 7 -31 8 -9 12 -30 10 -46 -2 -26 8 -41 76
-109 89 -89 108 -95 155 -49 42 43 33 70 -57 159 -67 65 -78 73 -104 68 -19
-4 -33 -1 -41 8 -16 19 -39 19 -46 0z m158 -112 c32 -32 58 -65 58 -75 0 -34
-35 -18 -94 41 -51 51 -57 62 -46 75 7 9 15 16 18 16 4 0 32 -26 64 -57z"/>
</g>
</svg>
