<?xml version="1.0" standalone="no"?>
<!DOCTYPE svg PUBLIC "-//W3C//DTD SVG 20010904//EN"
 "http://www.w3.org/TR/2001/REC-SVG-20010904/DTD/svg10.dtd">
<svg version="1.0" xmlns="http://www.w3.org/2000/svg"
 width="100.000000pt" height="100.000000pt" viewBox="0 0 100.000000 100.000000"
 preserveAspectRatio="xMidYMid meet">

<g transform="translate(0.000000,100.000000) scale(0.100000,-0.100000)"
fill="#000000" stroke="none">
<path d="M423 956 c-58 -28 -99 -80 -114 -146 -12 -54 3 -111 47 -176 36 -54
68 -133 77 -196 5 -34 4 -37 -21 -40 -25 -3 -27 -7 -30 -50 l-3 -48 -90 0
c-118 0 -129 -10 -129 -116 0 -72 2 -78 30 -104 17 -15 30 -33 30 -38 0 -6 7
-18 16 -26 13 -14 52 -16 275 -16 160 0 268 4 280 10 10 6 19 20 19 31 0 11
10 23 24 28 31 12 36 29 36 120 0 104 -8 111 -123 111 l-87 0 0 38 c0 42 -14
62 -43 62 -17 0 -19 5 -14 43 10 69 36 138 74 193 61 90 64 171 8 255 -31 48
-110 89 -170 89 -22 0 -63 -11 -92 -24z m160 -30 c65 -27 115 -115 103 -181
-4 -18 -18 -49 -31 -70 -59 -86 -99 -204 -93 -274 3 -31 7 -36 31 -39 24 -3
27 -7 27 -41 0 -55 12 -61 117 -61 l94 0 -3 -77 -3 -78 -310 0 -310 0 0 75 0
75 100 5 100 5 3 48 c3 42 6 47 26 47 43 0 48 20 30 106 -19 96 -32 127 -77
193 -44 64 -54 115 -32 167 40 97 136 139 228 100z m187 -876 c0 -6 -92 -10
-255 -10 -163 0 -255 4 -255 10 0 6 92 10 255 10 163 0 255 -4 255 -10z"/>
<path d="M326 213 c-13 -13 -6 -63 9 -63 10 0 15 10 15 29 0 30 -12 46 -24 34z"/>
<path d="M447 213 c-4 -3 -7 -19 -7 -35 0 -23 4 -29 18 -26 21 4 28 41 9 56
-8 7 -17 9 -20 5z"/>
<path d="M567 213 c-4 -3 -7 -19 -7 -35 0 -23 4 -29 18 -26 21 4 28 41 9 56
-8 7 -17 9 -20 5z"/>
<path d="M687 214 c-4 -4 -7 -20 -7 -36 0 -23 4 -29 18 -26 11 2 17 13 17 32
0 29 -14 43 -28 30z"/>
</g>
</svg>
